<svg width="113" height="119" viewBox="0 0 113 119" fill="none" xmlns="http://www.w3.org/2000/svg">
<path opacity="0.963" d="M111.994 101.5C111.994 136.833 111.994 103 111.994 112.804C102.994 112.804 93.9935 112.804 84.9935 112.804C85.1585 109.454 85.4915 104.817 84.9935 101.5C70.3565 113.738 53.3565 118.209 34.9935 112.304C7.58152 98.4683 -3.25248 76.3013 2.49352 45.8043M85.9935 59.8043C83.8485 37.3313 71.5145 27.3313 48.9935 29.8043C38.5965 33.5473 30.603 42.076 28 53" stroke="black"/>
<path opacity="0.963" d="M84.4722 12.949C85.4249 9.79452 85.7797 6.57808 85.5373 3.30448H85.5736H85.6263H85.6791H85.7318H85.7845H85.8373H85.89H85.9427H85.9955H86.0482H86.1009H86.1537H86.2064H86.2591H86.3119H86.3646H86.4174H86.4701H86.5228H86.5756H86.6283H86.681H86.7338H86.7865H86.8392H86.892H86.9447H86.9974H87.0502H87.1029H87.1556H87.2084H87.2611H87.3138H87.3666H87.4193H87.472H87.5248H87.5775H87.6302H87.683H87.7357H87.7884H87.8412H87.8939H87.9466H87.9994H88.0521H88.1049H88.1576H88.2103H88.2631H88.3158H88.3685H88.4213H88.474H88.5267H88.5795H88.6322H88.6849H88.7377H88.7904H88.8431H88.8959H88.9486H89.0013H89.0541H89.1068H89.1595H89.2123H89.265H89.3177H89.3705H89.4232H89.4759H89.5287H89.5814H89.6341H89.6869H89.7396H89.7924H89.8451H89.8978H89.9506H90.0033H90.056H90.1088H90.1615H90.2142H90.267H90.3197H90.3724H90.4252H90.4779H90.5306H90.5834H90.6361H90.6888H90.7416H90.7943H90.847H90.8998H90.9525H91.0052H91.058H91.1107H91.1634H91.2162H91.2689H91.3216H91.3744H91.4271H91.4799H91.5326H91.5853H91.6381H91.6908H91.7435H91.7963H91.849H91.9017H91.9545H92.0072H92.0599H92.1127H92.1654H92.2181H92.2709H92.3236H92.3763H92.4291H92.4818H92.5345H92.5873H92.64H92.6927H92.7455H92.7982H92.8509H92.9037H92.9564H93.0091H93.0619H93.1146H93.1674H93.2201H93.2728H93.3256H93.3783H93.431H93.4838H93.5365H93.5892H93.642H93.6947H93.7474H93.8002H93.8529H93.9056H93.9584H94.0111H94.0638H94.1166H94.1693H94.222H94.2748H94.3275H94.3802H94.433H94.4857H94.5384H94.5912H94.6439H94.6966H94.7494H94.8021H94.8549H94.9076H94.9603H95.0131H95.0658H95.1185H95.1713H95.224H95.2767H95.3295H95.3822H95.4349H95.4877H95.5404H95.5931H95.6459H95.6986H95.7513H95.8041H95.8568H95.9095H95.9623H96.015H96.0677H96.1205H96.1732H96.2259H96.2787H96.3314H96.3841H96.4369H96.4896H96.5424H96.5951H96.6478H96.7006H96.7533H96.806H96.8588H96.9115H96.9642H97.017H97.0697H97.1224H97.1752H97.2279H97.2806H97.3334H97.3861H97.4388H97.4916H97.5443H97.597H97.6498H97.7025H97.7552H97.808H97.8607H97.9134H97.9662H98.0189H98.0716H98.1244H98.1771H98.2299H98.2826H98.3353H98.3881H98.4408H98.4935H98.5463H98.599H98.6517H98.7045H98.7572H98.8099H98.8627H98.9154H98.9681H99.0209H99.0736H99.1263H99.1791H99.2318H99.2845H99.3373H99.39H99.4427H99.4955H99.5482H99.6009H99.6537H99.7064H99.7591H99.8119H99.8646H99.9174H99.9701H100.023H100.076H100.128H100.181H100.234H100.286H100.339H100.392H100.445H100.497H100.55H100.603H100.656H100.708H100.761H100.814H100.867H100.919H100.972H101.025H101.078H101.13H101.183H101.236H101.288H101.341H101.394H101.447H101.499H101.552H101.605H101.658H101.71H101.763H101.816H101.869H101.921H101.974H102.027H102.079H102.132H102.185H102.238H102.29H102.343H102.396H102.449H102.501H102.554H102.607H102.66H102.712H102.765H102.818H102.87H102.923H102.976H103.029H103.081H103.134H103.187H103.24H103.292H103.345H103.398H103.451H103.503H103.556H103.609H103.661H103.714H103.767H103.82H103.872H103.925H103.978H104.031H104.083H104.136H104.189H104.242H104.294H104.347H104.4H104.453H104.505H104.558H104.611H104.663H104.716H104.769H104.822H104.874H104.927H104.98H105.033H105.085H105.138H105.191H105.244H105.296H105.349H105.402H105.454H105.507H105.56H105.613H105.665H105.718H105.771H105.824H105.876H105.929H105.982H106.035H106.087H106.14H106.193H106.245H106.298H106.351H106.404H106.456H106.509H106.562H106.615H106.667H106.72H106.773H106.826H106.878H106.931H106.984H107.036H107.089H107.142H107.195H107.247H107.3H107.353H107.406H107.458H107.511H107.564H107.617H107.669H107.722H107.775H107.828H107.88H107.933H107.986H108.038H108.091H108.144H108.197H108.249H108.302H108.355H108.408H108.46H108.513H108.566H108.619H108.671H108.724H108.777H108.829H108.882H108.935H108.988H109.04H109.093H109.146H109.199H109.251H109.304H109.357H109.41H109.462H109.515H109.568H109.62H109.673H109.726H109.779H109.831H109.884H109.937H109.99H110.042H110.095H110.148H110.201H110.253H110.306H110.359H110.411H110.464H110.517H110.57H110.622H110.675H110.728H110.781H110.833H110.886H110.939H110.992H111.044H111.097H111.15H111.203H111.255H111.308H111.361H111.413H111.466H111.494V3.42557V3.6326V3.83963V4.04666V4.25369V4.46072V4.66775V4.87478V5.08181V5.28884V5.49587V5.7029V5.90993V6.11696V6.32399V6.53101V6.73804V6.94507V7.1521V7.35913V7.56616V7.77319V7.98022V8.18725V8.39428V8.60131V8.80834V9.01537V9.2224V9.42943V9.63646V9.84349V10.0505V10.2576V10.4646V10.6716V10.8786V11.0857V11.2927V11.4997V11.7068V11.9138V12.1208V12.3279V12.5349V12.7419V12.9489V13.156V13.363V13.57V13.7771V13.9841V14.1911V14.3982V14.6052V14.8122V15.0192V15.2263V15.4333V15.6403V15.8474V16.0544V16.2614V16.4685V16.6755V16.8825V17.0896V17.2966V17.5036V17.7106V17.9177V18.1247V18.3317V18.5388V18.7458V18.9528V19.1599V19.3669V19.5739V19.781V19.988V20.195V20.402V20.6091V20.8161V21.0231V21.2302V21.4372V21.6442V21.8513V22.0583V22.2653V22.4724V22.6794V22.8864V23.0935V23.3005V23.5075V23.7145V23.9216V24.1286V24.3356V24.5427V24.7497V24.9567V25.1638V25.3708V25.5778V25.7849V25.9919V26.1989V26.406V26.613V26.82V27.027V27.2341V27.4411V27.6481V27.8552V28.0622V28.2692V28.4763V28.6833V28.8903V29.0974V29.3044V29.5114V29.7185V29.9255V30.1325V30.3395V30.5466V30.7536V30.9606V31.1677V31.3747V31.5817V31.7888V31.9958V32.2028V32.4099V32.6169V32.8239V33.031V33.238V33.445V33.6521V33.8591V34.0661V34.2731V34.4802V34.6872V34.8942V35.1013V35.3083V35.5153V35.7224V35.9294V36.1364V36.3435V36.5505V36.7575V36.9646V37.1716V37.3786V37.5857V37.7927V37.9997V38.2068V38.4138V38.6208V38.8279V39.0349V39.2419V39.4489V39.656V39.863V40.07V40.2771V40.4841V40.6911V40.8982V41.1052V41.3122V41.5193V41.7263V41.9333V42.1404V42.3474V42.5544V42.7615V42.9685V43.1755V43.3826V43.5896V43.7966V44.0037V44.2107V44.4177V44.6247V44.8318V45.0388V45.2458V45.4529V45.6599V45.8669V46.074V46.281V46.488V46.6951V46.9021V47.1091V47.3162V47.5232V47.7302V47.9373V48.1443V48.3513V48.5584V48.7654V48.9724V49.1795V49.3865V49.5935V49.8005V50.0076V50.2146V50.4216V50.6287V50.8357V51.0427V51.2498V51.4568V51.6638V51.8709V52.0779V52.2849V52.492V52.699V52.906V53.1131V53.3201V53.5271V53.7342V53.9412V54.1482V54.3553V54.5623V54.7693V54.9764V55.1834V55.3904V55.5975V55.8045V56.0115V56.2185V56.4256V56.6326V56.8396V57.0467V57.2537V57.4607V57.6678V57.8748V58.0818V58.2889V58.4959V58.7029V58.91V59.117V59.324V59.5311V59.7381V59.9451V60.1522V60.3592V60.5662V60.7733V60.9803V61.1873V61.3944V61.6014V61.8084V62.0154V62.2225V62.4295V62.6365V62.8436V63.0506V63.2576V63.4647V63.6717V63.8787V64.0858V64.2928V64.4998V64.7069V64.9139V65.1209V65.328V65.535V65.742V65.9491V66.1561V66.3631V66.5702V66.7772V66.9842V67.1913V67.3983V67.6053V67.8123V68.0194V68.2264V68.4334V68.6405V68.8475V69.0545V69.2616V69.4686V69.6756V69.8827V70.0897V70.2967V70.5038V70.7108V70.9178V71.1249V71.3319V71.5389V71.746V71.953V72.16V72.3671V72.5741V72.7811V72.9882V73.1952V73.4022V73.6092V73.8163V74.0233V74.2303V74.4374V74.6444V74.8514V75.0585V75.2655V75.4725V75.6796V75.8866V76.0936V76.3007V76.5077V76.7147V76.9218V77.1288V77.3358V77.5428V77.7499V77.9569V78.1639V78.371V78.578V78.785V78.9921V79.1991V79.4061V79.6132V79.8202V80.0272V80.2343V80.4413V80.6483V80.8554V81.0624V81.2694V81.4764V81.6835V81.8905V82.0975V82.3046V82.5116V82.7186V82.9257V83.1327V83.3397V83.5468V83.7538V83.9608V84.1679V84.3749V84.5819V84.789V84.996V85.203V85.41V85.6171V85.8241V86.0311V86.2382V86.4452V86.6522V86.8593V87.0663V87.2733V87.4804V87.6874V87.8944V88.1015V88.3085V88.5155V88.7225V88.9296V89.1366V89.3436V89.5507V89.7577V89.9647V90.1718V90.3788V90.5858V90.7929V90.9999V91.2069V91.4139V91.621V91.828V92.035V92.2421V92.4491V92.6561V92.8632V93.0702V93.2772V93.4843V93.6913V93.8983V94.1053V94.3124V94.5194V94.7264V94.9335V95.1405V95.3475V95.5546V95.7616V95.9686V96.1757V96.3827V96.5897V96.7967V97.0038V97.2108V97.4178V97.6249V97.8319V98.0389V98.246V98.453V98.66V98.8671V99.0741V99.2811V99.4881V99.6952V99.9022V100.109V100.316V100.523V100.73V100.937V101.144V101.351V101.558V101.765V101.973V102.18V102.387V102.594V102.801V103.008V103.215V103.422V103.629V103.836V104.043V104.25V104.457V104.664V104.871V105.078V105.285V105.492V105.699V105.906V106.113V106.32V106.527V106.734V106.941V107.148V107.355V107.562V107.769V107.976V108.183V108.304H111.466H111.413H111.361H111.308H111.255H111.203H111.15H111.097H111.044H110.992H110.939H110.886H110.833H110.781H110.728H110.675H110.622H110.57H110.517H110.464H110.411H110.359H110.306H110.253H110.201H110.148H110.095H110.042H109.99H109.937H109.884H109.831H109.779H109.726H109.673H109.62H109.568H109.515H109.462H109.41H109.357H109.304H109.251H109.199H109.146H109.093H109.04H108.988H108.935H108.882H108.829H108.777H108.724H108.671H108.619H108.566H108.513H108.46H108.408H108.355H108.302H108.249H108.197H108.144H108.091H108.038H107.986H107.933H107.88H107.828H107.775H107.722H107.669H107.617H107.564H107.511H107.458H107.406H107.353H107.3H107.247H107.195H107.142H107.089H107.036H106.984H106.931H106.878H106.826H106.773H106.72H106.667H106.615H106.562H106.509H106.456H106.404H106.351H106.298H106.245H106.193H106.14H106.087H106.035H105.982H105.929H105.876H105.824H105.771H105.718H105.665H105.613H105.56H105.507H105.454H105.402H105.349H105.296H105.244H105.191H105.138H105.085H105.033H104.98H104.927H104.874H104.822H104.769H104.716H104.663H104.611H104.558H104.505H104.453H104.4H104.347H104.294H104.242H104.189H104.136H104.083H104.031H103.978H103.925H103.872H103.82H103.767H103.714H103.661H103.609H103.556H103.503H103.451H103.398H103.345H103.292H103.24H103.187H103.134H103.081H103.029H102.976H102.923H102.87H102.818H102.765H102.712H102.66H102.607H102.554H102.501H102.449H102.396H102.343H102.29H102.238H102.185H102.132H102.079H102.027H101.974H101.921H101.869H101.816H101.763H101.71H101.658H101.605H101.552H101.499H101.447H101.394H101.341H101.288H101.236H101.183H101.13H101.078H101.025H100.972H100.919H100.867H100.814H100.761H100.708H100.656H100.603H100.55H100.497H100.445H100.392H100.339H100.286H100.234H100.181H100.128H100.076H100.023H99.9701H99.9174H99.8646H99.8119H99.7591H99.7064H99.6537H99.6009H99.5482H99.4955H99.4427H99.39H99.3373H99.2845H99.2318H99.1791H99.1263H99.0736H99.0209H98.9681H98.9154H98.8627H98.8099H98.7572H98.7045H98.6517H98.599H98.5463H98.4935H98.4408H98.3881H98.3353H98.2826H98.2299H98.1771H98.1244H98.0716H98.0189H97.9662H97.9134H97.8607H97.808H97.7552H97.7025H97.6498H97.597H97.5443H97.4916H97.4388H97.3861H97.3334H97.2806H97.2279H97.1752H97.1224H97.0697H97.017H96.9642H96.9115H96.8588H96.806H96.7533H96.7006H96.6478H96.5951H96.5424H96.4896H96.4369H96.3841H96.3314H96.2787H96.2259H96.1732H96.1205H96.0677H96.015H95.9623H95.9095H95.8568H95.8041H95.7513H95.6986H95.6459H95.5931H95.5404H95.4877H95.4349H95.3822H95.3295H95.2767H95.224H95.1713H95.1185H95.0658H95.0131H94.9603H94.9076H94.8549H94.8021H94.7494H94.6966H94.6439H94.5912H94.5384H94.4857H94.433H94.3802H94.3275H94.2748H94.222H94.1693H94.1166H94.0638H94.0111H93.9584H93.9056H93.8529H93.8002H93.7474H93.6947H93.642H93.5892H93.5365H93.4838H93.431H93.3783H93.3256H93.2728H93.2201H93.1674H93.1146H93.0619H93.0091H92.9564H92.9037H92.8509H92.7982H92.7455H92.6927H92.64H92.5873H92.5345H92.4818H92.4291H92.3763H92.3236H92.2709H92.2181H92.1654H92.1127H92.0599H92.0072H91.9545H91.9017H91.849H91.7963H91.7435H91.6908H91.6381H91.5853H91.5326H91.4799H91.4271H91.3744H91.3216H91.2689H91.2162H91.1634H91.1107H91.058H91.0052H90.9525H90.8998H90.847H90.7943H90.7416H90.6888H90.6361H90.5834H90.5306H90.4779H90.4252H90.3724H90.3197H90.267H90.2142H90.1615H90.1088H90.056H90.0033H89.9506H89.8978H89.8451H89.7924H89.7396H89.6869H89.6341H89.5814H89.5287H89.4759H89.4232H89.3705H89.3177H89.265H89.2123H89.1595H89.1068H89.0541H89.0013H88.9486H88.8959H88.8431H88.7904H88.7377H88.6849H88.6322H88.5795H88.5267H88.474H88.4213H88.3685H88.3158H88.2631H88.2103H88.1576H88.1049H88.0521H87.9994H87.9466H87.8939H87.8412H87.7884H87.7357H87.683H87.6302H87.5775H87.5248H87.472H87.4193H87.3666H87.3138H87.2611H87.2084H87.1556H87.1029H87.0502H86.9974H86.9447H86.892H86.8392H86.7865H86.7338H86.681H86.6283H86.5756H86.5228H86.4701H86.4174H86.3646H86.3119H86.2591H86.2064H86.1537H86.1009H86.0482H85.9955H85.9427H85.89H85.8373H85.7845H85.7318H85.6791H85.6263H85.5736H85.5209H85.5161C85.6412 105.098 85.4649 101.907 84.988 98.7302L84.8558 97.8498L84.1728 98.4209C69.6791 110.539 53.3707 113.677 35.1838 107.84C21.5698 100.962 12.1121 92.0369 6.75849 81.0828C1.40112 70.1209 0.127123 57.0725 2.98317 41.9061C5.38774 31.3138 9.7695 22.6503 16.114 15.8939C22.4543 9.1419 30.7769 4.27092 41.1035 1.29312C57.2552 -1.34969 71.4287 2.61142 83.6667 13.1829L84.2495 13.6863L84.4722 12.949ZM48.9389 25.3075L48.88 25.3139L48.8242 25.334C38.2654 29.1353 31.6485 36.6037 29.0071 47.6886L29.0044 47.7002L29.0022 47.7119C27.2644 56.9328 28.1083 64.7542 31.5955 71.1331C35.0832 77.5128 41.178 82.3823 49.8109 85.7699L49.8721 85.7939L49.9374 85.8013C61.0224 87.0539 69.6816 85.2153 75.8239 80.182C81.9658 75.149 85.4938 67.0013 86.4915 55.849L86.4957 55.803L86.4913 55.757C85.4115 44.4439 81.7577 36.1761 75.4494 31.0614C69.1415 25.9469 60.275 24.0627 48.9389 25.3075Z" stroke="black"/>
</svg>
