<svg width="466" height="452" viewBox="0 0 466 452" fill="none" xmlns="http://www.w3.org/2000/svg">
<g filter="url(#filter0_d_6_34)">
<path d="M39.5005 149H20.5005C31.2709 44.0848 66.8421 6.26826 197.5 0.5" stroke="black"/>
<path d="M239.002 90H251.502C257.014 90.1401 259.95 90.4435 264.502 92C287.562 99.342 295.867 105.528 303.002 120C305.044 133.123 304.739 139.804 299.502 149.5C293.983 155.503 290.229 158.268 281.502 162.5C199.781 180.135 175.966 182.571 117.002 192.5C95.6261 196.565 85.2397 200.553 67.5021 208.5C43.1138 222.539 31.0949 231.839 19.0021 256.5C4.98183 286.663 4.38218 305.757 5.50213 328.5C6.24132 349.184 7.43843 359.108 12.5021 370.5C20.4114 389.934 26.2259 399.111 41.0021 410C56.3033 421.093 63.9072 425.334 76.5022 431C97.1659 436.268 106.544 437.83 121.502 439.5C141.672 441.513 152.58 441.708 172.002 442" stroke="black"/>
<path d="M305.5 236.5C309.028 259.17 308.982 270.504 305.5 289C293.999 316.668 286.127 326.678 270.5 338.5C248.873 349.692 234.739 353.846 205.5 357" stroke="black"/>
<path d="M334 434H314.5C314.67 425.266 314.029 420.435 311.5 412" stroke="black"/>
<path opacity="0.978" d="M334.246 434.128H334.015C334.317 422.444 331.845 411.196 326.604 400.384L326.31 399.777L325.815 400.234C301.344 422.835 271.243 436.264 235.497 440.511C189.094 445.199 143.451 442.372 98.5753 432.023C72.2982 421.375 53.1002 407.057 40.9326 389.093C28.7625 371.125 23.5954 349.465 25.4619 324.08L25.4641 324.049L25.4626 324.018C23.5722 286.42 32.8031 256.549 53.0975 234.342C73.4002 212.125 104.834 197.512 147.476 190.56C196.716 182.963 245.695 174.456 294.416 165.038L294.445 165.032L294.474 165.023C307.818 160.713 316.841 154.435 321.417 146.126C325.998 137.807 326.062 127.564 321.727 115.466L321.696 115.379L321.636 115.309C312.078 104.147 299.75 96.3011 284.67 91.763L284.629 91.7508L284.587 91.7456C261.69 88.9036 238.798 88.9036 215.901 91.7456L215.869 91.7495L215.838 91.7575C199.942 95.8403 187.447 102.518 178.389 111.814C169.413 121.027 163.84 132.783 161.657 147.056C121.187 149.157 80.6881 149.858 40.1553 149.169C40.192 106.316 52.3765 72.6193 76.6574 48.0175C101.036 23.3167 137.667 7.72401 186.621 1.29568C244.319 -1.24373 301.4 2.29495 357.86 11.9158C389.898 23.344 414.225 39.4746 430.878 60.2875C447.535 81.1043 456.543 106.639 457.884 136.918C460.329 235.978 461.148 335.046 460.337 434.128H460.335H460.087H459.838H459.589H459.34H459.092H458.843H458.594H458.346H458.097H457.848H457.599H457.351H457.102H456.853H456.605H456.356H456.107H455.859H455.61H455.361H455.112H454.864H454.615H454.366H454.118H453.869H453.62H453.372H453.123H452.874H452.625H452.377H452.128H451.879H451.631H451.382H451.133H450.885H450.636H450.387H450.138H449.89H449.641H449.392H449.144H448.895H448.646H448.397H448.149H447.9H447.651H447.403H447.154H446.905H446.657H446.408H446.159H445.91H445.662H445.413H445.164H444.916H444.667H444.418H444.17H443.921H443.672H443.423H443.175H442.926H442.677H442.429H442.18H441.931H441.683H441.434H441.185H440.936H440.688H440.439H440.19H439.942H439.693H439.444H439.196H438.947H438.698H438.45H438.201H437.952H437.703H437.455H437.206H436.957H436.709H436.46H436.211H435.963H435.714H435.465H435.216H434.968H434.719H434.47H434.222H433.973H433.724H433.476H433.227H432.978H432.729H432.481H432.232H431.983H431.735H431.486H431.237H430.989H430.74H430.491H430.243H429.994H429.745H429.496H429.248H428.999H428.75H428.502H428.253H428.004H427.756H427.507H427.258H427.009H426.761H426.512H426.263H426.015H425.766H425.517H425.269H425.02H424.771H424.523H424.274H424.025H423.776H423.528H423.279H423.03H422.782H422.533H422.284H422.036H421.787H421.538H421.29H421.041H420.792H420.543H420.295H420.046H419.797H419.549H419.3H419.051H418.803H418.554H418.305H418.056H417.808H417.559H417.31H417.062H416.813H416.564H416.316H416.067H415.818H415.57H415.321H415.072H414.823H414.575H414.326H414.077H413.829H413.58H413.331H413.083H412.834H412.585H412.337H412.088H411.839H411.59H411.342H411.093H410.844H410.596H410.347H410.098H409.85H409.601H409.352H409.104H408.855H408.606H408.357H408.109H407.86H407.611H407.363H407.114H406.865H406.617H406.368H406.119H405.871H405.622H405.373H405.124H404.876H404.627H404.378H404.13H403.881H403.632H403.384H403.135H402.886H402.638H402.389H402.14H401.891H401.643H401.394H401.145H400.897H400.648H400.399H400.151H399.902H399.653H399.405H399.156H398.907H398.659H398.41H398.161H397.912H397.664H397.415H397.166H396.918H396.669H396.42H396.172H395.923H395.674H395.426H395.177H394.928H394.679H394.431H394.182H393.933H393.685H393.436H393.187H392.939H392.69H392.441H392.193H391.944H391.695H391.446H391.198H390.949H390.7H390.452H390.203H389.954H389.706H389.457H389.208H388.96H388.711H388.462H388.213H387.965H387.716H387.467H387.219H386.97H386.721H386.473H386.224H385.975H385.727H385.478H385.229H384.98H384.732H384.483H384.234H383.986H383.737H383.488H383.24H382.991H382.742H382.493H382.245H381.996H381.747H381.499H381.25H381.001H380.753H380.504H380.255H380.007H379.758H379.509H379.26H379.012H378.763H378.514H378.266H378.017H377.768H377.52H377.271H377.022H376.774H376.525H376.276H376.027H375.779H375.53H375.281H375.033H374.784H374.535H374.287H374.038H373.789H373.541H373.292H373.043H372.794H372.546H372.297H372.048H371.8H371.551H371.302H371.054H370.805H370.556H370.308H370.059H369.81H369.561H369.313H369.064H368.815H368.567H368.318H368.069H367.821H367.572H367.323H367.074H366.826H366.577H366.328H366.08H365.831H365.582H365.334H365.085H364.836H364.588H364.339H364.09H363.841H363.593H363.344H363.095H362.847H362.598H362.349H362.101H361.852H361.603H361.354H361.106H360.857H360.608H360.36H360.111H359.862H359.614H359.365H359.116H358.868H358.619H358.37H358.121H357.873H357.624H357.375H357.127H356.878H356.629H356.381H356.132H355.883H355.634H355.386H355.137H354.888H354.64H354.391H354.142H353.894H353.645H353.396H353.147H352.899H352.65H352.401H352.153H351.904H351.655H351.407H351.158H350.909H350.66H350.412H350.163H349.914H349.666H349.417H349.168H348.92H348.671H348.422H348.173H347.925H347.676H347.427H347.179H346.93H346.681H346.433H346.184H345.935H345.686H345.438H345.189H344.94H344.692H344.443H344.194H343.946H343.697H343.448H343.199H342.951H342.702H342.453H342.205H341.956H341.707H341.459H341.21H340.961H340.712H340.464H340.215H339.966H339.718H339.469H339.22H338.972H338.723H338.474H338.225H337.977H337.728H337.479H337.231H336.982H336.733H336.484H336.236H335.987H335.738H335.49H335.241H334.992H334.744H334.495H334.246ZM324.199 230.395L324.112 229.835L323.567 229.992C274.613 244.067 225.634 258.955 176.63 274.655L176.53 274.687L176.451 274.758C168.852 281.519 163.093 289.378 159.184 298.324L159.176 298.341L159.17 298.358C154.591 311.375 154.538 322.768 159.098 332.489C163.654 342.202 172.776 350.16 186.369 356.397L186.453 356.436L186.545 356.442C239.355 359.89 277.338 351.163 300.345 330.112C323.376 309.04 331.269 275.745 324.199 230.395Z" stroke="black"/>
</g>
<defs>
<filter id="filter0_d_6_34" x="0.629883" y="0" width="464.51" height="451.204" filterUnits="userSpaceOnUse" color-interpolation-filters="sRGB">
<feFlood flood-opacity="0" result="BackgroundImageFix"/>
<feColorMatrix in="SourceAlpha" type="matrix" values="0 0 0 0 0 0 0 0 0 0 0 0 0 0 0 0 0 0 127 0" result="hardAlpha"/>
<feOffset dy="4"/>
<feGaussianBlur stdDeviation="2"/>
<feComposite in2="hardAlpha" operator="out"/>
<feColorMatrix type="matrix" values="0 0 0 0 0 0 0 0 0 0 0 0 0 0 0 0 0 0 0.25 0"/>
<feBlend mode="normal" in2="BackgroundImageFix" result="effect1_dropShadow_6_34"/>
<feBlend mode="normal" in="SourceGraphic" in2="effect1_dropShadow_6_34" result="shape"/>
</filter>
</defs>
</svg>
